<svg width="43" height="42" viewBox="0 0 43 42" fill="none" xmlns="http://www.w3.org/2000/svg">
<path d="M13.586 22.1803C13.6677 22.3028 13.6677 22.4253 13.7085 22.5886C13.7494 23.1195 13.341 23.6096 12.8101 23.6504C12.2793 23.6913 11.7892 23.2829 11.7484 22.752C11.7484 22.6295 11.7484 22.507 11.7076 22.3028C11.7076 22.0986 11.7076 21.9761 11.7076 21.8536C11.7076 20.6693 11.9117 19.5258 12.2793 18.4232C12.7693 16.9939 13.6269 15.728 14.6478 14.6662C15.9137 13.4002 17.4655 12.5018 19.2214 12.0118C20.0382 11.8076 20.9365 11.6851 21.7941 11.6851C22.08 11.6851 22.3658 11.6851 22.6925 11.7259C22.9784 11.7667 23.2642 11.8076 23.5501 11.8484C24.0809 11.9301 24.4485 12.461 24.326 12.951C24.2443 13.4819 23.7134 13.8494 23.2234 13.7269C22.9784 13.6861 22.7742 13.6453 22.5292 13.6453C22.4883 13.6453 22.4475 13.6453 22.4067 13.6453C22.2025 13.6453 21.9983 13.6044 21.7941 13.6044C19.5481 13.6044 17.4655 14.5028 15.9954 16.0138C14.5253 17.484 13.6269 19.485 13.586 21.7311V21.8127C13.586 21.9761 13.586 22.0986 13.586 22.1803Z" fill="#181B23"/>
<path d="M8.19557 23.0786C8.2364 23.6094 7.82804 24.0995 7.29717 24.1403C6.7663 24.1812 6.27627 23.7728 6.23543 23.2419C6.1946 22.7927 6.19459 22.3435 6.19459 21.8943C6.19459 20.9958 6.27627 20.1383 6.39878 19.2807C6.92965 16.0137 8.52226 13.0734 10.7683 10.8273C13.3409 8.25457 16.7712 6.58024 20.5689 6.29438C20.9773 6.25354 21.4265 6.25354 21.8349 6.25354C22.2841 6.25354 22.7333 6.25354 23.1825 6.29438C23.6317 6.33521 24.0809 6.37605 24.53 6.45773C25.0609 6.5394 25.4284 7.07029 25.3059 7.56034C25.2243 8.09122 24.6934 8.45876 24.2034 8.33625C23.9175 8.29541 23.6725 8.25457 23.3866 8.21374C23.2641 8.21374 23.1416 8.1729 23.0191 8.1729C22.6107 8.13206 22.2024 8.13206 21.8349 8.13206C20.4464 8.13206 19.1397 8.33625 17.8737 8.70378C15.6686 9.35718 13.7085 10.5415 12.1158 12.1341C10.8091 13.4409 9.74734 15.0336 9.05313 16.7488C8.44058 18.3006 8.07306 20.0157 8.07306 21.8126C8.07306 21.9351 8.07306 22.0985 8.07306 22.221C8.15473 22.5477 8.19557 22.7927 8.19557 23.0786Z" fill="#181B23"/>
<path d="M6.80722 6.90645C10.6867 3.0269 15.9954 0.658325 21.8758 0.658325C22.4883 0.658325 23.1009 0.699163 23.7134 0.74C24.326 0.780837 24.9385 0.862512 25.551 0.985025C26.0819 1.0667 26.4494 1.59759 26.3269 2.08763C26.2453 2.61852 25.7144 2.98606 25.2244 2.86355C24.9385 2.82271 24.6935 2.78187 24.4076 2.74103C24.1218 2.7002 23.8359 2.65936 23.5501 2.65936C22.9784 2.61852 22.4475 2.57768 21.8758 2.57768C16.5671 2.57768 11.7484 4.74207 8.23649 8.21325C4.76541 11.6844 2.60109 16.5032 2.60109 21.8529C2.60109 22.1388 2.60109 22.4655 2.60109 22.7514C2.60109 22.9964 2.64193 23.2414 2.64193 23.5273C2.68277 24.0582 2.2744 24.5482 1.74353 24.589C1.21266 24.6299 0.722626 24.2215 0.681789 23.6906C0.640953 23.0781 0.600119 22.4655 0.600119 21.8938C0.600119 16.054 2.96862 10.7452 6.80722 6.90645Z" fill="#181B23"/>
<path d="M2.11108 31.6544L9.33909 27.7748C11.7484 26.4681 11.8301 27.3256 14.3619 30.0209C14.9745 30.6743 16.1179 32.3895 17.4655 32.0628C20.2832 31.3685 25.5511 27.244 27.2662 25.3654C28.0829 24.467 31.5948 20.1791 31.6357 18.7906C31.7173 16.6671 27.062 15.6053 28.5729 11.5624L31.799 4.33418C34.8209 -2.60818 43.274 8.49959 42.5798 13.6859C40.783 26.468 18.3639 47.1318 5.86801 40.3119C3.09115 38.7601 -0.665783 33.3287 2.11108 31.6544Z" fill="#181B23"/>
</svg>
